<svg xmlns="http://www.w3.org/2000/svg" width="1200" height="630" viewBox="0 0 1200 630" fill="none">
  <defs>
    <linearGradient id="bg" x1="84" y1="72" x2="1138" y2="558" gradientUnits="userSpaceOnUse">
      <stop stop-color="#081018"/>
      <stop offset="1" stop-color="#102030"/>
    </linearGradient>
  </defs>
  <rect width="1200" height="630" fill="#050b11"/>
  <rect x="42" y="42" width="1116" height="546" rx="40" fill="url(#bg)" stroke="#173042" stroke-width="2"/>
  <circle cx="1130" cy="110" r="168" fill="#103548" opacity="0.22"/>
  <circle cx="100" cy="558" r="196" fill="#0b202c" opacity="0.45"/>
  <rect x="84" y="84" width="8" height="462" rx="4" fill="#34c759"/>
  <text x="116" y="132" fill="#34c759" font-size="24" font-weight="700" letter-spacing="0.12em">BRAWLER PAGE</text>
  <text x="84" y="226" fill="#f5fbff" font-size="62" font-weight="800"><tspan x="84" dy="0">Dynamike — C Tier</tspan></text>
  <text x="84" y="394" fill="#9eb5c6" font-size="26" font-weight="500"><tspan x="84" dy="0">Dynamike is rank #73 with a BrawlRank score</tspan><tspan x="84" dy="30">of 2.79 out of 6.00 in the current Brawl</tspan><tspan x="84" dy="30">Stars meta.</tspan></text>
<g><rect x="84" y="490" width="118" height="46" rx="23" fill="#34c759"/><text x="143" y="520" fill="#041018" font-size="24" font-weight="700" text-anchor="middle">C Tier</text></g>
<text x="232" y="520" fill="#f5fbff" font-size="28" font-weight="700">2.79 / 6.00</text>
  <text x="84" y="580" fill="#7f98aa" font-size="18" font-weight="600">brawlrank.com</text>
<g>
  <rect x="878" y="126" width="242" height="378" rx="38" fill="#0d1720" stroke="#233648" stroke-width="2"/>
  <rect x="902" y="150" width="194" height="194" rx="32" fill="#091118"/>
  <image href="https://brawlrank.com/portraits/16000009.png" x="912" y="160" width="174" height="174" preserveAspectRatio="xMidYMid meet"/>
  <rect x="902" y="370" width="194" height="108" rx="24" fill="#101d28"/>
  <text x="999" y="414" fill="#f5fbff" font-size="34" font-weight="700" text-anchor="middle">C</text>
  <text x="999" y="452" fill="#9eb5c6" font-size="22" font-weight="500" text-anchor="middle">2.79 / 6.00</text>
</g>
</svg>
