<svg xmlns="http://www.w3.org/2000/svg" width="1200" height="630" viewBox="0 0 1200 630" fill="none">
  <defs>
    <linearGradient id="bg" x1="0" y1="0" x2="1200" y2="630" gradientUnits="userSpaceOnUse">
      <stop stop-color="#0a0a0f"/>
      <stop offset="1" stop-color="#12121a"/>
    </linearGradient>
    <radialGradient id="glow" cx="600" cy="120" r="520" gradientUnits="userSpaceOnUse">
      <stop stop-color="#00e5ff" stop-opacity="0.18"/>
      <stop offset="0.45" stop-color="#00e5ff" stop-opacity="0.05"/>
      <stop offset="1" stop-color="#00e5ff" stop-opacity="0"/>
    </radialGradient>
  </defs>
  <rect width="1200" height="630" fill="url(#bg)"/>
  <rect width="1200" height="630" fill="url(#glow)"/>
  <svg xmlns="http://www.w3.org/2000/svg" viewBox="843 185 1135 1159" x="80" y="115" width="400" height="408" preserveAspectRatio="xMidYMid meet">
<defs>
  <filter id="brGlow" x="-50%" y="-50%" width="200%" height="200%">
    <feGaussianBlur in="SourceGraphic" stdDeviation="48" result="blur"/>
  </filter>
</defs>
<path fill="none" opacity="1.000000" stroke="none" 
	d="
M1664.000000,1538.000000 
	C1109.396851,1538.000000 555.793640,1538.000000 2.095241,1538.000000 
	C2.095241,1026.122192 2.095241,514.244446 2.095241,2.183315 
	C940.436829,2.183315 1878.873657,2.183315 2817.655273,2.183315 
	C2817.655273,513.999817 2817.655273,1025.999878 2817.655273,1538.000000 
	C2433.577148,1538.000000 2049.288574,1538.000000 1664.000000,1538.000000 
M1369.022339,1339.497559 
	C1404.826538,1339.389038 1440.630737,1339.197266 1476.434937,1339.194214 
	C1516.316040,1339.190796 1556.198120,1339.589111 1596.077881,1339.394775 
	C1646.528809,1339.148926 1696.983398,1338.786255 1747.424438,1337.834839 
	C1765.652832,1337.490967 1784.018799,1336.436279 1802.018921,1333.706909 
	C1835.825684,1328.580811 1866.626709,1315.355957 1893.258057,1293.735718 
	C1935.403442,1259.520752 1960.027344,1215.005127 1968.337769,1161.509399 
	C1972.687988,1133.506958 1973.774414,1105.223511 1973.784058,1076.925537 
	C1973.848511,888.288269 1973.941040,699.650879 1973.699219,511.013947 
	C1973.660034,480.399048 1972.496338,449.761322 1970.947876,419.179932 
	C1969.595825,392.476654 1964.139038,366.324646 1954.399414,341.432190 
	C1941.096924,307.433655 1920.427002,278.467194 1892.976196,254.070053 
	C1859.134888,223.993546 1819.472900,206.602341 1775.567017,198.356796 
	C1739.816040,191.642807 1703.437256,190.734268 1667.232422,190.612305 
	C1518.257446,190.110352 1369.279297,190.184341 1220.303223,190.480667 
	C1179.018921,190.562775 1137.731567,191.931152 1096.457031,193.109924 
	C1069.437500,193.881577 1042.994385,198.471313 1017.008728,206.123505 
	C973.957581,218.801041 938.087158,242.460205 908.704041,276.073608 
	C873.625366,316.202545 857.107056,364.284332 852.729797,416.325684 
	C849.524902,454.429230 849.600769,492.825745 848.748474,531.103577 
	C848.259094,553.082703 848.923828,575.085632 848.915222,597.077759 
	C848.878967,689.718567 848.598389,782.359802 848.769653,875.000122 
	C848.910706,951.298096 849.333252,1027.597534 850.162292,1103.890625 
	C850.349548,1121.122681 851.884460,1138.452393 854.310181,1155.522339 
	C858.214355,1182.995605 866.145996,1209.347412 880.096436,1233.638672 
	C915.111389,1294.609375 967.622192,1329.046143 1037.475342,1335.864258 
	C1064.264771,1338.479004 1091.318726,1339.168335 1118.259277,1339.305176 
	C1201.176392,1339.726440 1284.096924,1339.456909 1369.022339,1339.497559 
z"/>
<path fill="#010101" opacity="1.000000" stroke="none" 
	d="
M1368.019287,1339.476807 
	C1284.096924,1339.456909 1201.176392,1339.726440 1118.259277,1339.305176 
	C1091.318726,1339.168335 1064.264771,1338.479004 1037.475342,1335.864258 
	C967.622192,1329.046143 915.111389,1294.609375 880.096436,1233.638672 
	C866.145996,1209.347412 858.214355,1182.995605 854.310181,1155.522339 
	C851.884460,1138.452393 850.349548,1121.122681 850.162292,1103.890625 
	C849.333252,1027.597534 848.910706,951.298096 848.769653,875.000122 
	C848.598389,782.359802 848.878967,689.718567 848.915222,597.077759 
	C848.923828,575.085632 848.259094,553.082703 848.748474,531.103577 
	C849.600769,492.825745 849.524902,454.429230 852.729797,416.325684 
	C857.107056,364.284332 873.625366,316.202545 908.704041,276.073608 
	C938.087158,242.460205 973.957581,218.801041 1017.008728,206.123505 
	C1042.994385,198.471313 1069.437500,193.881577 1096.457031,193.109924 
	C1137.731567,191.931152 1179.018921,190.562775 1220.303223,190.480667 
	C1369.279297,190.184341 1518.257446,190.110352 1667.232422,190.612305 
	C1703.437256,190.734268 1739.816040,191.642807 1775.567017,198.356796 
	C1819.472900,206.602341 1859.134888,223.993546 1892.976196,254.070053 
	C1920.427002,278.467194 1941.096924,307.433655 1954.399414,341.432190 
	C1964.139038,366.324646 1969.595825,392.476654 1970.947876,419.179932 
	C1972.496338,449.761322 1973.660034,480.399048 1973.699219,511.013947 
	C1973.941040,699.650879 1973.848511,888.288269 1973.784058,1076.925537 
	C1973.774414,1105.223511 1972.687988,1133.506958 1968.337769,1161.509399 
	C1960.027344,1215.005127 1935.403442,1259.520752 1893.258057,1293.735718 
	C1866.626709,1315.355957 1835.825684,1328.580811 1802.018921,1333.706909 
	C1784.018799,1336.436279 1765.652832,1337.490967 1747.424438,1337.834839 
	C1696.983398,1338.786255 1646.528809,1339.148926 1596.077881,1339.394775 
	C1556.198120,1339.589111 1516.316040,1339.190796 1476.434937,1339.194214 
	C1440.630737,1339.197266 1404.826538,1339.389038 1368.019287,1339.476807 
M1520.320923,807.006958 
	C1514.851440,787.513794 1505.726807,769.960815 1492.656494,754.452515 
	C1479.471924,738.808655 1462.174438,728.748535 1442.970947,719.624573 
	C1445.892578,717.624023 1447.229858,716.679626 1448.595093,715.777710 
	C1470.404663,701.369751 1485.655029,681.976685 1494.554932,657.264954 
	C1504.687378,629.130920 1503.072388,601.169800 1494.764648,573.154663 
	C1486.799316,546.293945 1470.995239,525.187622 1447.618042,509.644043 
	C1421.551636,492.312195 1392.187134,484.932678 1361.677246,484.629242 
	C1275.722534,483.774414 1189.753906,484.325409 1103.790771,484.356659 
	C1101.239868,484.357605 1098.689087,484.742249 1096.258911,484.938263 
	C1094.219604,508.783234 1095.190552,970.596069 1097.366699,978.329346 
	C1100.869751,978.329346 1104.509155,978.329285 1108.148560,978.329285 
	C1191.446167,978.329285 1274.743896,978.413330 1358.041260,978.274597 
	C1381.020386,978.236328 1403.780640,975.503296 1426.021362,969.657715 
	C1453.726196,962.376038 1478.100830,948.884766 1496.207642,926.413147 
	C1524.300171,891.549072 1529.552368,851.440979 1520.320923,807.006958 
M1631.754517,637.818237 
	C1631.945801,641.136047 1632.259155,644.452087 1632.309692,647.772034 
	C1632.927612,688.327759 1610.447021,722.358398 1565.503662,728.308960 
	C1551.740356,730.131165 1537.684692,729.826172 1523.755981,730.284790 
	C1516.294922,730.530457 1508.819092,730.328430 1499.750122,730.328430 
	C1503.689819,735.092163 1506.294556,738.435547 1509.098999,741.602051 
	C1530.335205,765.578613 1542.057617,793.540283 1544.340332,825.469604 
	C1545.129883,836.513062 1548.069336,846.457520 1554.263184,856.137329 
	C1569.671021,880.217163 1583.868774,905.070984 1598.562378,929.608093 
	C1608.275879,945.828796 1618.006104,962.039307 1627.456421,977.799927 
	C1652.965210,979.634705 1725.923706,978.810059 1734.791016,976.346802 
	C1716.704102,947.411072 1698.623535,918.863831 1680.932251,890.077209 
	C1663.097168,861.056152 1644.185181,832.674927 1626.696045,802.479919 
	C1632.132690,799.759460 1636.291992,797.766846 1640.371826,795.622925 
	C1677.799072,775.954590 1705.171021,747.397522 1719.076294,706.834961 
	C1728.305420,679.912964 1730.687988,652.453430 1726.378296,624.341064 
	C1719.977417,582.587585 1701.751831,547.253113 1668.796509,520.407776 
	C1638.723877,495.910492 1602.925049,486.051178 1565.067139,484.620972 
	C1529.140259,483.263733 1493.121826,484.315094 1457.143799,484.378571 
	C1455.471436,484.381531 1453.800415,485.080933 1449.534058,486.038116 
	C1484.363770,505.755524 1505.619141,533.621216 1515.740967,569.671631 
	C1528.089722,569.671631 1539.433228,569.192322 1550.715210,569.818726 
	C1560.261841,570.348694 1570.075684,570.986389 1579.182739,573.615173 
	C1610.337158,582.607849 1626.657104,604.704407 1631.754517,637.818237 
M1646.310913,1117.000000 
	C1646.310913,1098.162964 1646.310913,1079.325928 1646.310913,1060.712280 
	C1630.581421,1058.664185 1513.786499,1059.346680 1506.648682,1061.344116 
	C1506.648682,1106.724121 1506.648682,1152.111816 1506.648682,1197.366577 
	C1520.985718,1199.249023 1638.782104,1198.641724 1646.311523,1196.624756 
	C1646.311523,1170.855957 1646.311523,1144.927979 1646.310913,1117.000000 
M1341.658447,1160.996948 
	C1341.658936,1170.645264 1341.558960,1180.294800 1341.692749,1189.941284 
	C1341.793945,1197.244019 1342.648071,1198.275146 1349.542969,1198.289551 
	C1391.130127,1198.376709 1432.717651,1198.372070 1474.304810,1198.293213 
	C1480.990967,1198.280518 1481.612183,1197.544800 1481.650635,1190.815063 
	C1481.738159,1175.511353 1481.674072,1160.206909 1481.675537,1144.902710 
	C1481.676636,1133.923706 1481.479004,1122.938843 1481.784180,1111.968262 
	C1481.916870,1107.194214 1479.552612,1105.310913 1475.518799,1104.699707 
	C1473.238403,1104.354370 1470.879272,1104.480835 1468.555420,1104.477051 
	C1433.300537,1104.419556 1398.045776,1104.330444 1362.790894,1104.368042 
	C1355.933105,1104.375366 1349.075684,1104.888550 1341.658447,1105.191162 
	C1341.658447,1123.788818 1341.658447,1141.393555 1341.658447,1160.996948 
M1310.535400,1152.301025 
	C1288.577271,1152.300781 1266.618652,1152.194214 1244.661377,1152.330444 
	C1222.521606,1152.467896 1200.358521,1151.789307 1178.263062,1152.413086 
	C1178.263062,1168.379883 1178.263062,1182.889771 1178.263062,1197.301147 
	C1192.332275,1199.308838 1309.042725,1198.700684 1316.310913,1196.539062 
	C1316.310913,1183.708984 1316.330078,1170.742920 1316.295166,1157.776978 
	C1316.288086,1155.125366 1316.535645,1152.150146 1310.535400,1152.301025 
z"/>
<path fill="#00FEFE" opacity="1.000000" stroke="none" filter="url(#brGlow)"
	d="
M1520.468506,807.824036 
	C1529.552368,851.440979 1524.300171,891.549072 1496.207642,926.413147 
	C1478.100830,948.884766 1453.726196,962.376038 1426.021362,969.657715 
	C1403.780640,975.503296 1381.020386,978.236328 1358.041260,978.274597 
	C1274.743896,978.413330 1191.446167,978.329285 1108.148560,978.329285 
	C1104.509155,978.329285 1100.869751,978.329346 1097.366699,978.329346 
	C1095.190552,970.596069 1094.219604,508.783234 1096.258911,484.938263 
	C1098.689087,484.742249 1101.239868,484.357605 1103.790771,484.356659 
	C1189.753906,484.325409 1275.722534,483.774414 1361.677246,484.629242 
	C1392.187134,484.932678 1421.551636,492.312195 1447.618042,509.644043 
	C1470.995239,525.187622 1486.799316,546.293945 1494.764648,573.154663 
	C1503.072388,601.169800 1504.687378,629.130920 1494.554932,657.264954 
	C1485.655029,681.976685 1470.404663,701.369751 1448.595093,715.777710 
	C1447.229858,716.679626 1445.892578,717.624023 1442.970947,719.624573 
	C1462.174438,728.748535 1479.471924,738.808655 1492.656494,754.452515 
	C1505.726807,769.960815 1514.851440,787.513794 1520.468506,807.824036 
M1420.386353,865.115906 
	C1430.177612,849.813354 1430.587646,832.961975 1427.195068,816.059265 
	C1423.173340,796.022400 1411.059326,782.174927 1391.709595,775.025146 
	C1378.831665,770.266663 1365.522461,767.684570 1351.770996,767.676575 
	C1306.469238,767.650208 1261.167480,767.634094 1215.865723,767.697876 
	C1208.006592,767.708984 1200.147949,768.127686 1192.030273,768.365723 
	C1192.030273,810.361389 1192.030273,851.433350 1192.030273,893.673584 
	C1196.893677,893.673584 1200.809204,893.673584 1204.724854,893.673584 
	C1255.023071,893.673584 1305.322998,893.880188 1355.618286,893.500977 
	C1365.806396,893.424194 1376.155029,891.920593 1386.114136,889.674927 
	C1400.184082,886.502197 1411.802734,878.942200 1420.386353,865.115906 
M1229.000000,684.227722 
	C1265.321045,684.152405 1301.643188,684.197571 1337.962524,683.907532 
	C1345.895142,683.844177 1353.951904,683.261475 1361.717407,681.730835 
	C1376.798950,678.757874 1390.268066,672.434875 1398.954224,658.929565 
	C1411.115967,640.020508 1411.630615,619.928711 1402.815063,599.843872 
	C1399.988403,593.403931 1395.041260,587.099548 1389.461792,582.824463 
	C1376.834595,573.148865 1362.123779,567.746277 1345.963501,567.709290 
	C1297.635864,567.598755 1249.307983,567.661682 1200.980103,567.689392 
	C1198.092285,567.691040 1195.204834,567.977966 1192.432739,568.125916 
	C1190.612915,585.911255 1191.279663,675.924866 1193.520752,684.217712 
	C1204.464722,684.217712 1215.732544,684.217712 1229.000000,684.227722 
z"/>
<path fill="#00FDFD" opacity="1.000000" stroke="none" filter="url(#brGlow)"
	d="
M1631.712891,636.913330 
	C1626.657104,604.704407 1610.337158,582.607849 1579.182739,573.615173 
	C1570.075684,570.986389 1560.261841,570.348694 1550.715210,569.818726 
	C1539.433228,569.192322 1528.089722,569.671631 1515.740967,569.671631 
	C1505.619141,533.621216 1484.363770,505.755524 1449.534058,486.038116 
	C1453.800415,485.080933 1455.471436,484.381531 1457.143799,484.378571 
	C1493.121826,484.315094 1529.140259,483.263733 1565.067139,484.620972 
	C1602.925049,486.051178 1638.723877,495.910492 1668.796509,520.407776 
	C1701.751831,547.253113 1719.977417,582.587585 1726.378296,624.341064 
	C1730.687988,652.453430 1728.305420,679.912964 1719.076294,706.834961 
	C1705.171021,747.397522 1677.799072,775.954590 1640.371826,795.622925 
	C1636.291992,797.766846 1632.132690,799.759460 1626.696045,802.479919 
	C1644.185181,832.674927 1663.097168,861.056152 1680.932251,890.077209 
	C1698.623535,918.863831 1716.704102,947.411072 1734.791016,976.346802 
	C1725.923706,978.810059 1652.965210,979.634705 1627.456421,977.799927 
	C1618.006104,962.039307 1608.275879,945.828796 1598.562378,929.608093 
	C1583.868774,905.070984 1569.671021,880.217163 1554.263184,856.137329 
	C1548.069336,846.457520 1545.129883,836.513062 1544.340332,825.469604 
	C1542.057617,793.540283 1530.335205,765.578613 1509.098999,741.602051 
	C1506.294556,738.435547 1503.689819,735.092163 1499.750122,730.328430 
	C1508.819092,730.328430 1516.294922,730.530457 1523.755981,730.284790 
	C1537.684692,729.826172 1551.740356,730.131165 1565.503662,728.308960 
	C1610.447021,722.358398 1632.927612,688.327759 1632.309692,647.772034 
	C1632.259155,644.452087 1631.945801,641.136047 1631.712891,636.913330 
z"/>
<path fill="#00FEFE" opacity="1.000000" stroke="none" 
	d="
M1520.468506,807.824036 
	C1529.552368,851.440979 1524.300171,891.549072 1496.207642,926.413147 
	C1478.100830,948.884766 1453.726196,962.376038 1426.021362,969.657715 
	C1403.780640,975.503296 1381.020386,978.236328 1358.041260,978.274597 
	C1274.743896,978.413330 1191.446167,978.329285 1108.148560,978.329285 
	C1104.509155,978.329285 1100.869751,978.329346 1097.366699,978.329346 
	C1095.190552,970.596069 1094.219604,508.783234 1096.258911,484.938263 
	C1098.689087,484.742249 1101.239868,484.357605 1103.790771,484.356659 
	C1189.753906,484.325409 1275.722534,483.774414 1361.677246,484.629242 
	C1392.187134,484.932678 1421.551636,492.312195 1447.618042,509.644043 
	C1470.995239,525.187622 1486.799316,546.293945 1494.764648,573.154663 
	C1503.072388,601.169800 1504.687378,629.130920 1494.554932,657.264954 
	C1485.655029,681.976685 1470.404663,701.369751 1448.595093,715.777710 
	C1447.229858,716.679626 1445.892578,717.624023 1442.970947,719.624573 
	C1462.174438,728.748535 1479.471924,738.808655 1492.656494,754.452515 
	C1505.726807,769.960815 1514.851440,787.513794 1520.468506,807.824036 
M1420.386353,865.115906 
	C1430.177612,849.813354 1430.587646,832.961975 1427.195068,816.059265 
	C1423.173340,796.022400 1411.059326,782.174927 1391.709595,775.025146 
	C1378.831665,770.266663 1365.522461,767.684570 1351.770996,767.676575 
	C1306.469238,767.650208 1261.167480,767.634094 1215.865723,767.697876 
	C1208.006592,767.708984 1200.147949,768.127686 1192.030273,768.365723 
	C1192.030273,810.361389 1192.030273,851.433350 1192.030273,893.673584 
	C1196.893677,893.673584 1200.809204,893.673584 1204.724854,893.673584 
	C1255.023071,893.673584 1305.322998,893.880188 1355.618286,893.500977 
	C1365.806396,893.424194 1376.155029,891.920593 1386.114136,889.674927 
	C1400.184082,886.502197 1411.802734,878.942200 1420.386353,865.115906 
M1229.000000,684.227722 
	C1265.321045,684.152405 1301.643188,684.197571 1337.962524,683.907532 
	C1345.895142,683.844177 1353.951904,683.261475 1361.717407,681.730835 
	C1376.798950,678.757874 1390.268066,672.434875 1398.954224,658.929565 
	C1411.115967,640.020508 1411.630615,619.928711 1402.815063,599.843872 
	C1399.988403,593.403931 1395.041260,587.099548 1389.461792,582.824463 
	C1376.834595,573.148865 1362.123779,567.746277 1345.963501,567.709290 
	C1297.635864,567.598755 1249.307983,567.661682 1200.980103,567.689392 
	C1198.092285,567.691040 1195.204834,567.977966 1192.432739,568.125916 
	C1190.612915,585.911255 1191.279663,675.924866 1193.520752,684.217712 
	C1204.464722,684.217712 1215.732544,684.217712 1229.000000,684.227722 
z"/>
<path fill="#00FDFD" opacity="1.000000" stroke="none" 
	d="
M1631.712891,636.913330 
	C1626.657104,604.704407 1610.337158,582.607849 1579.182739,573.615173 
	C1570.075684,570.986389 1560.261841,570.348694 1550.715210,569.818726 
	C1539.433228,569.192322 1528.089722,569.671631 1515.740967,569.671631 
	C1505.619141,533.621216 1484.363770,505.755524 1449.534058,486.038116 
	C1453.800415,485.080933 1455.471436,484.381531 1457.143799,484.378571 
	C1493.121826,484.315094 1529.140259,483.263733 1565.067139,484.620972 
	C1602.925049,486.051178 1638.723877,495.910492 1668.796509,520.407776 
	C1701.751831,547.253113 1719.977417,582.587585 1726.378296,624.341064 
	C1730.687988,652.453430 1728.305420,679.912964 1719.076294,706.834961 
	C1705.171021,747.397522 1677.799072,775.954590 1640.371826,795.622925 
	C1636.291992,797.766846 1632.132690,799.759460 1626.696045,802.479919 
	C1644.185181,832.674927 1663.097168,861.056152 1680.932251,890.077209 
	C1698.623535,918.863831 1716.704102,947.411072 1734.791016,976.346802 
	C1725.923706,978.810059 1652.965210,979.634705 1627.456421,977.799927 
	C1618.006104,962.039307 1608.275879,945.828796 1598.562378,929.608093 
	C1583.868774,905.070984 1569.671021,880.217163 1554.263184,856.137329 
	C1548.069336,846.457520 1545.129883,836.513062 1544.340332,825.469604 
	C1542.057617,793.540283 1530.335205,765.578613 1509.098999,741.602051 
	C1506.294556,738.435547 1503.689819,735.092163 1499.750122,730.328430 
	C1508.819092,730.328430 1516.294922,730.530457 1523.755981,730.284790 
	C1537.684692,729.826172 1551.740356,730.131165 1565.503662,728.308960 
	C1610.447021,722.358398 1632.927612,688.327759 1632.309692,647.772034 
	C1632.259155,644.452087 1631.945801,641.136047 1631.712891,636.913330 
z"/>
<path fill="#FD0000" opacity="1.000000" stroke="none" 
	d="
M1646.311279,1118.000000 
	C1646.311523,1144.927979 1646.311523,1170.855957 1646.311523,1196.624756 
	C1638.782104,1198.641724 1520.985718,1199.249023 1506.648682,1197.366577 
	C1506.648682,1152.111816 1506.648682,1106.724121 1506.648682,1061.344116 
	C1513.786499,1059.346680 1630.581421,1058.664185 1646.310913,1060.712280 
	C1646.310913,1079.325928 1646.310913,1098.162964 1646.311279,1118.000000 
z"/>
<path fill="#FDFD00" opacity="1.000000" stroke="none" 
	d="
M1341.658447,1159.997681 
	C1341.658447,1141.393555 1341.658447,1123.788818 1341.658447,1105.191162 
	C1349.075684,1104.888550 1355.933105,1104.375366 1362.790894,1104.368042 
	C1398.045776,1104.330444 1433.300537,1104.419556 1468.555420,1104.477051 
	C1470.879272,1104.480835 1473.238403,1104.354370 1475.518799,1104.699707 
	C1479.552612,1105.310913 1481.916870,1107.194214 1481.784180,1111.968262 
	C1481.479004,1122.938843 1481.676636,1133.923706 1481.675537,1144.902710 
	C1481.674072,1160.206909 1481.738159,1175.511353 1481.650635,1190.815063 
	C1481.612183,1197.544800 1480.990967,1198.280518 1474.304810,1198.293213 
	C1432.717651,1198.372070 1391.130127,1198.376709 1349.542969,1198.289551 
	C1342.648071,1198.275146 1341.793945,1197.244019 1341.692749,1189.941284 
	C1341.558960,1180.294800 1341.658936,1170.645264 1341.658447,1159.997681 
z"/>
<path fill="#00FC03" opacity="1.000000" stroke="none" 
	d="
M1311.488281,1152.310547 
	C1316.535645,1152.150146 1316.288086,1155.125366 1316.295166,1157.776978 
	C1316.330078,1170.742920 1316.310913,1183.708984 1316.310913,1196.539062 
	C1309.042725,1198.700684 1192.332275,1199.308838 1178.263062,1197.301147 
	C1178.263062,1182.889771 1178.263062,1168.379883 1178.263062,1152.413086 
	C1200.358521,1151.789307 1222.521606,1152.467896 1244.661377,1152.330444 
	C1266.618652,1152.194214 1288.577271,1152.300781 1311.488281,1152.310547 
z"/>
<path fill="#000102" opacity="1.000000" stroke="none" 
	d="
M1420.035156,865.765625 
	C1411.802734,878.942200 1400.184082,886.502197 1386.114136,889.674927 
	C1376.155029,891.920593 1365.806396,893.424194 1355.618286,893.500977 
	C1305.322998,893.880188 1255.023071,893.673584 1204.724854,893.673584 
	C1200.809204,893.673584 1196.893677,893.673584 1192.030273,893.673584 
	C1192.030273,851.433350 1192.030273,810.361389 1192.030273,768.365723 
	C1200.147949,768.127686 1208.006592,767.708984 1215.865723,767.697876 
	C1261.167480,767.634094 1306.469238,767.650208 1351.770996,767.676575 
	C1365.522461,767.684570 1378.831665,770.266663 1391.709595,775.025146 
	C1411.059326,782.174927 1423.173340,796.022400 1427.195068,816.059265 
	C1430.587646,832.961975 1430.177612,849.813354 1420.035156,865.765625 
z"/>
<path fill="#000101" opacity="1.000000" stroke="none" 
	d="
M1228.000244,684.222717 
	C1215.732544,684.217712 1204.464722,684.217712 1193.520752,684.217712 
	C1191.279663,675.924866 1190.612915,585.911255 1192.432739,568.125916 
	C1195.204834,567.977966 1198.092285,567.691040 1200.980103,567.689392 
	C1249.307983,567.661682 1297.635864,567.598755 1345.963501,567.709290 
	C1362.123779,567.746277 1376.834595,573.148865 1389.461792,582.824463 
	C1395.041260,587.099548 1399.988403,593.403931 1402.815063,599.843872 
	C1411.630615,619.928711 1411.115967,640.020508 1398.954224,658.929565 
	C1390.268066,672.434875 1376.798950,678.757874 1361.717407,681.730835 
	C1353.951904,683.261475 1345.895142,683.844177 1337.962524,683.907532 
	C1301.643188,684.197571 1265.321045,684.152405 1228.000244,684.222717 
z"/>
<path fill="#00FEFE" opacity="1.000000" stroke="none" filter="url(#brGlow)"
	d="
M1420.035156,865.765625 
	C1411.802734,878.942200 1400.184082,886.502197 1386.114136,889.674927 
	C1376.155029,891.920593 1365.806396,893.424194 1355.618286,893.500977 
	C1305.322998,893.880188 1255.023071,893.673584 1204.724854,893.673584 
	C1200.809204,893.673584 1196.893677,893.673584 1192.030273,893.673584 
	C1192.030273,851.433350 1192.030273,810.361389 1192.030273,768.365723 
	C1200.147949,768.127686 1208.006592,767.708984 1215.865723,767.697876 
	C1261.167480,767.634094 1306.469238,767.650208 1351.770996,767.676575 
	C1365.522461,767.684570 1378.831665,770.266663 1391.709595,775.025146 
	C1411.059326,782.174927 1423.173340,796.022400 1427.195068,816.059265 
	C1430.587646,832.961975 1430.177612,849.813354 1420.035156,865.765625 
z"/>
<path fill="#00FEFE" opacity="1.000000" stroke="none" filter="url(#brGlow)"
	d="
M1228.000244,684.222717 
	C1215.732544,684.217712 1204.464722,684.217712 1193.520752,684.217712 
	C1191.279663,675.924866 1190.612915,585.911255 1192.432739,568.125916 
	C1195.204834,567.977966 1198.092285,567.691040 1200.980103,567.689392 
	C1249.307983,567.661682 1297.635864,567.598755 1345.963501,567.709290 
	C1362.123779,567.746277 1376.834595,573.148865 1389.461792,582.824463 
	C1395.041260,587.099548 1399.988403,593.403931 1402.815063,599.843872 
	C1411.630615,619.928711 1411.115967,640.020508 1398.954224,658.929565 
	C1390.268066,672.434875 1376.798950,678.757874 1361.717407,681.730835 
	C1353.951904,683.261475 1345.895142,683.844177 1337.962524,683.907532 
	C1301.643188,684.197571 1265.321045,684.152405 1228.000244,684.222717 
z"/>
</svg>
  <text x="540" y="245" fill="#00e5ff" font-family="'Satoshi','Inter',system-ui,sans-serif" font-size="48" font-weight="700" letter-spacing="3.5"><tspan x="540" dy="0">BRAWLRANK: A BRAWL</tspan><tspan x="540" dy="64">STARS TIER LIST</tspan></text>
  <text x="540" y="410" fill="#9898aa" font-family="'Satoshi','Inter',system-ui,sans-serif" font-size="24" font-weight="400">Aggregated from 9 sources — data, pros, and community</text>
  <text x="540" y="455" fill="#66667a" font-family="'Satoshi','Inter',system-ui,sans-serif" font-size="24" font-weight="400">Last updated: April 27, 2026</text>
  <text x="540" y="555" fill="#3a3a4a" font-family="'Satoshi','Inter',system-ui,sans-serif" font-size="18" font-weight="600" letter-spacing="2">brawlrank.com</text>
</svg>
